<svg width="120" height="112" viewBox="0 0 120 112" fill="none" xmlns="http://www.w3.org/2000/svg">
<path d="M59.0054 83.3758C58.6011 83.214 58.1968 83.0523 57.7924 82.8097C57.5498 82.6479 57.0646 82.1627 57.2264 81.8392C57.3881 81.5966 57.6307 81.2732 58.1968 81.354C62.1593 82.001 69.2758 81.9201 73.0766 73.1863C73.0766 73.1054 73.1575 73.1054 73.1575 73.0245C74.9366 68.7385 74.9366 64.2098 73.481 60.0855C72.1062 56.2038 69.5993 52.6456 66.1219 50.2195C65.8793 50.0578 65.6367 49.9769 65.4749 49.8152C64.7471 49.2491 63.9385 48.7639 63.1298 48.4404C59.2481 46.7422 55.1238 46.0952 50.9995 46.4187C50.8377 46.4187 50.7569 46.4187 50.5951 46.4187C48.1691 46.6613 45.6621 47.3083 43.3978 48.1978C40.8908 49.33 39.8395 49.2491 39.1926 48.8448C39.1117 48.7639 39.1117 48.683 39.1117 48.6022C39.1117 48.5213 39.0309 48.4404 39.0309 48.3596C39.0309 48.2787 38.95 48.1978 38.95 48.1169C38.95 48.0361 38.95 47.9552 38.8691 47.8743C38.8691 47.7935 38.8691 47.7126 38.8691 47.5509C38.8691 47.2274 38.8691 46.9039 38.8691 46.4996C38.8691 46.3378 38.8691 46.257 38.8691 46.0952C38.8691 46.0952 38.8691 46.0952 38.8691 46.0144C38.8691 45.6909 38.8691 45.3674 38.95 45.0439C38.95 44.7205 39.0309 44.397 39.0309 44.0735C39.0309 43.75 39.1117 43.4266 39.1117 43.1031C39.1926 42.4561 39.2735 41.8092 39.3543 41.1622C39.4352 40.4344 39.5161 39.7875 39.6778 39.0596C39.7587 38.7362 39.7587 38.4127 39.8396 38.0892C39.9204 37.4423 40.0822 36.7953 40.163 36.2292C40.163 36.0675 40.2439 35.8249 40.2439 35.6631C40.2439 35.5014 40.3248 35.2588 40.3248 35.0971C40.4865 34.4501 40.6482 33.8032 40.81 33.0754C40.9717 32.4284 41.1335 31.7814 41.2952 31.1345C41.3761 30.811 41.4569 30.4876 41.5378 30.1641C41.6187 29.8406 41.6995 29.5171 41.7804 29.1936C42.023 28.2232 42.3465 27.2528 42.5891 26.2824C42.8317 25.3119 43.1552 24.3415 43.4787 23.452C43.6404 22.8859 43.8021 22.3198 44.0447 21.7537C44.2873 21.1068 44.5299 20.4598 44.7726 19.8129C44.9343 19.2468 45.1769 18.7616 45.3386 18.1955C45.3386 18.1146 45.4195 18.1146 45.4195 18.0338C45.6621 17.4677 45.8238 16.9016 46.0664 16.3355C46.7943 14.3947 47.5221 12.5347 48.2499 10.9173C48.3308 10.6747 48.4117 10.4321 48.5734 10.1895C48.816 9.70426 48.9778 9.29993 49.1395 8.81472C49.2204 8.57211 49.3012 8.41036 49.3821 8.16775C49.5438 7.76341 49.7055 7.43994 49.8673 7.11647C49.8673 7.0356 49.9482 7.03559 49.9482 6.95472C50.1908 6.38864 50.4334 5.90343 50.676 5.41822C51.1612 4.28606 51.6464 3.3965 51.9699 2.58781C52.1316 2.18347 52.2934 1.94085 52.4551 1.61738C52.536 1.53651 52.536 1.45565 52.6168 1.37478C52.6977 1.29391 52.6977 1.21305 52.6977 1.13218C52.6977 1.05131 52.7786 0.970436 52.7786 0.970436C52.8595 0.889567 52.8594 0.727839 52.9403 0.727839C52.9403 0.64697 52.9403 0.646965 53.0212 0.646965C53.0212 0.566096 53.0212 0.566092 53.0212 0.566092C53.9916 0.161747 55.1237 0 56.175 0C56.4176 0 56.6603 4.93464e-06 56.9029 0.0808737C57.2264 0.161743 57.6307 0.242626 57.9542 0.323495C58.1968 0.404364 58.4394 0.485223 58.682 0.566092C77.1201 7.68255 96.286 43.5074 108.093 69.3854C114.967 84.5888 119.334 96.3148 119.576 96.9617C119.576 96.9617 119.576 96.8808 119.495 96.8808C119.495 96.7999 119.414 96.7191 119.334 96.6382C119.253 96.5574 119.253 96.4765 119.172 96.3956C119.091 96.3148 119.091 96.2339 119.01 96.153C118.929 96.0722 118.929 95.9913 118.848 95.9104C118.767 95.8296 118.687 95.7487 118.687 95.5869C118.606 95.5061 118.606 95.4252 118.525 95.4252C118.444 95.2635 118.282 95.1017 118.201 94.94C118.121 94.7783 117.959 94.6165 117.878 94.4548C117.878 94.4548 117.878 94.4548 117.878 94.3739C117.797 94.2122 117.716 94.1313 117.635 93.9696L117.554 93.8887C117.474 93.727 117.393 93.6461 117.312 93.4844C117.069 93.1609 116.908 92.8374 116.665 92.5139C116.422 92.1905 116.18 91.867 115.937 91.4626C115.695 91.0583 115.371 90.654 115.048 90.2496C114.886 90.0879 114.805 89.8453 114.643 89.6835C114.481 89.4409 114.32 89.2792 114.158 89.0366C113.996 88.794 113.754 88.4705 113.511 88.2279C113.43 88.0662 113.268 87.9044 113.188 87.7427C112.702 87.0957 112.136 86.3679 111.651 85.7209C111.57 85.5592 111.408 85.3975 111.247 85.2357C111.247 85.2357 111.247 85.2357 111.247 85.1548C111.004 84.9122 110.842 84.5888 110.6 84.3462C110.357 84.0227 110.115 83.7801 109.953 83.4566C109.548 82.9714 109.225 82.567 108.821 82.0818C108.659 81.9201 108.497 81.6775 108.335 81.5157L108.255 81.4349C108.255 81.4349 108.255 81.354 108.174 81.354C107.608 80.7071 107.042 79.9792 106.395 79.2514C106.152 79.0088 105.909 78.6853 105.667 78.4427C105.505 78.2001 105.262 78.0384 105.101 77.7958C104.696 77.3106 104.292 76.9062 103.807 76.421C103.645 76.1784 103.402 76.0167 103.241 75.7741C102.998 75.5315 102.756 75.208 102.513 74.9654C102.432 74.8845 102.432 74.8845 102.351 74.8036C102.028 74.4802 101.785 74.1567 101.462 73.8332C101.138 73.4289 100.734 73.1054 100.41 72.7011L100.329 72.6202C100.087 72.3776 99.9251 72.2158 99.6825 71.9732C99.5208 71.8115 99.4399 71.7306 99.2782 71.5689C99.1164 71.4072 98.9546 71.2454 98.7929 71.0837C98.6312 70.922 98.3886 70.7602 98.2268 70.5176C97.9842 70.275 97.6607 70.0324 97.4181 69.7089C97.2564 69.5472 97.0947 69.3854 96.9329 69.3046C96.6095 68.9811 96.286 68.7385 95.9625 68.415C95.8008 68.2533 95.7199 68.1724 95.5582 68.0107C95.4773 67.9298 95.3964 67.8489 95.3156 67.8489C95.1538 67.7681 95.073 67.6063 94.9112 67.5255C94.8303 67.4446 94.8303 67.4446 94.7495 67.3637C94.5877 67.2828 94.5069 67.1211 94.3451 67.0403C94.1834 66.9594 94.1025 66.7976 93.9408 66.7168C93.8599 66.6359 93.6982 66.555 93.6173 66.4742C93.4556 66.3933 93.3747 66.2315 93.213 66.1507C93.1321 66.0698 93.0512 65.989 92.9703 65.989C92.8895 65.9081 92.8895 65.9081 92.8086 65.8272C92.566 65.5846 92.2425 65.342 91.9191 65.1803C91.6765 64.9377 91.353 64.7759 91.1104 64.5333C90.9486 64.3716 90.706 64.2098 90.5443 64.0481C89.9782 63.5629 89.3313 63.1585 88.7652 62.7542L88.6843 62.6733C88.6034 62.5925 88.4417 62.5116 88.3609 62.4307C88.28 62.3499 88.1182 62.269 88.0374 62.1881L87.9565 62.1073C87.8756 62.0264 87.7948 61.9455 87.633 61.8646C87.4713 61.7838 87.3904 61.7029 87.2287 61.622C87.2287 61.622 87.2287 61.622 87.1478 61.622C86.2583 61.056 85.3687 60.5708 84.6409 60.5708C83.913 60.8942 83.347 61.8647 83.1044 64.5333C82.7809 66.6359 82.2148 68.8194 81.4061 70.7602C81.3252 70.8411 81.3252 71.0028 81.2444 71.0837C79.4653 75.208 76.9583 79.1706 73.0766 81.4349C70.0845 83.4566 64.181 85.8827 59.0054 83.3758Z" fill="url(#paint0_linear_9296_51740)"/>
<path d="M71.623 59.7621C71.7039 60.1664 71.7039 60.6516 71.7039 61.056C71.7039 61.3794 71.5421 62.0264 71.1378 62.0264C70.8952 62.0264 70.41 62.0264 70.2482 61.4603C68.7926 57.7403 65.1535 51.5943 55.6919 52.6456C55.611 52.6456 55.611 52.6456 55.5301 52.6456C50.9206 53.2117 47.0389 55.5569 44.1276 58.7916C41.3781 61.8646 39.6798 65.9081 39.2755 70.0324C39.2755 70.275 39.2755 70.5176 39.2755 70.8411C39.1946 71.8115 39.1946 72.7011 39.2755 73.5906C39.7607 77.7958 41.2163 81.7584 43.5615 85.074C43.6424 85.1549 43.7233 85.2358 43.8041 85.3975C45.2598 87.4192 47.0389 89.1983 48.9798 90.7348C51.1632 92.3522 51.7293 93.3226 51.6484 94.0504C51.6484 94.1313 51.5675 94.2122 51.4867 94.2122C51.4058 94.293 51.4058 94.3739 51.3249 94.3739C51.2441 94.4548 51.1632 94.5357 51.1632 94.5357C51.0824 94.6165 51.0014 94.6165 50.9206 94.6974C50.8397 94.7783 50.7589 94.7782 50.678 94.8591C50.4354 95.0208 50.1119 95.1826 49.7884 95.3443C49.7076 95.4252 49.5458 95.4252 49.465 95.5061C49.465 95.5061 49.465 95.5061 49.3841 95.5061C49.0606 95.6678 48.818 95.8296 48.4945 95.9104C48.171 96.0722 47.9285 96.2339 47.605 96.3148C47.2815 96.4765 47.0389 96.5574 46.7154 96.7191C46.1494 96.9617 45.5833 97.2043 44.9363 97.4469C44.2894 97.6895 43.6424 98.013 42.9954 98.2556C42.672 98.4173 42.3485 98.4982 42.025 98.5791C41.4589 98.8217 40.812 98.9834 40.2459 99.226C40.0842 99.3069 39.9225 99.3878 39.6798 99.3878C39.5181 99.4687 39.3564 99.4687 39.1138 99.5495C38.4668 99.7921 37.8198 99.9539 37.1729 100.196C36.5259 100.358 35.879 100.601 35.2321 100.763C34.9086 100.843 34.5851 100.924 34.2616 101.005C33.9381 101.086 33.6147 101.167 33.2912 101.248C32.3208 101.49 31.3504 101.733 30.3799 101.976C29.4095 102.218 28.4391 102.461 27.4686 102.623C26.9025 102.784 26.3365 102.865 25.7704 102.946C25.0426 103.108 24.3956 103.189 23.7487 103.35C23.1826 103.431 22.6165 103.512 22.1313 103.674C22.0504 103.674 21.9696 103.674 21.9696 103.674C21.3226 103.755 20.7565 103.916 20.1904 103.997C18.0878 104.321 16.147 104.644 14.3679 104.806C14.1253 104.806 13.8827 104.887 13.6401 104.887C13.1549 104.968 12.6697 104.968 12.1844 105.049C11.9418 105.049 11.6992 105.129 11.4566 105.129C11.0523 105.21 10.648 105.21 10.3245 105.291C10.2436 105.291 10.1627 105.291 10.1627 105.291C9.59665 105.372 9.03057 105.372 8.54535 105.453C7.33232 105.534 6.28104 105.615 5.47235 105.696C5.068 105.696 4.74449 105.776 4.42101 105.776C4.34015 105.776 4.25931 105.776 4.09757 105.776C4.0167 105.776 3.93584 105.776 3.85497 105.776C3.7741 105.776 3.6932 105.776 3.61233 105.776C3.45059 105.776 3.36975 105.776 3.28888 105.776C3.20801 105.776 3.20798 105.776 3.20798 105.776C3.12711 105.776 3.12713 105.776 3.12713 105.776C2.31845 105.129 1.59063 104.24 1.10541 103.269C0.943676 103.027 0.862787 102.865 0.781918 102.623C0.620181 102.299 0.539342 101.895 0.458473 101.571C0.377604 101.329 0.377594 101.086 0.296725 100.843C-2.77629 81.354 18.654 46.8231 35.2321 23.6946C44.9363 10.1086 52.9423 0.485213 53.3466 0C53.3466 0 53.3466 4.93464e-06 53.3466 0.0808737C53.3466 0.161743 53.2658 0.242626 53.1849 0.323495C53.1849 0.404364 53.1041 0.485223 53.0232 0.566092C52.9423 0.64696 52.9423 0.727819 52.8615 0.808688C52.8615 0.889557 52.7806 0.970441 52.7806 1.05131C52.6997 1.13218 52.6997 1.21304 52.6189 1.37478C52.6189 1.45565 52.538 1.53651 52.538 1.61738C52.4571 1.77911 52.3762 1.94086 52.2954 2.18347C52.2145 2.34521 52.1336 2.50695 52.0528 2.74956C52.0528 2.74956 52.0528 2.74954 52.0528 2.83041C51.9719 2.99215 51.891 3.15389 51.8102 3.31563C51.8102 3.31563 51.8101 3.3965 51.7293 3.3965C51.6484 3.55824 51.5675 3.71998 51.4867 3.80084C51.3249 4.12432 51.1632 4.52865 51.0015 4.85213C50.8397 5.1756 50.678 5.57997 50.5162 5.98431C50.3545 6.38866 50.1119 6.87385 49.9502 7.35907C49.8693 7.60167 49.7884 7.76343 49.6267 8.00603C49.5458 8.24864 49.4649 8.49124 49.3032 8.73385C49.1415 9.05732 49.0606 9.38078 48.8989 9.70426C48.818 9.86599 48.7371 10.0277 48.6563 10.2703C48.3328 10.9982 48.0093 11.8069 47.6858 12.6155C47.605 12.7773 47.5241 13.0199 47.4432 13.1816C47.4432 13.1816 47.4432 13.1816 47.4432 13.2625C47.2815 13.586 47.2006 13.9094 47.0389 14.2329C46.8771 14.5564 46.7963 14.8799 46.6345 15.2842C46.3919 15.8503 46.2302 16.4164 45.9876 16.9825C45.9067 17.2251 45.8259 17.4677 45.745 17.7103V17.7911V17.872C45.4215 18.6807 45.098 19.5703 44.8554 20.4598C44.7746 20.7833 44.6128 21.1068 44.532 21.4302C44.4511 21.6728 44.3702 21.9963 44.2894 22.2389C44.1276 22.805 43.885 23.452 43.7233 24.018C43.6424 24.2607 43.5616 24.5841 43.4807 24.8267C43.3998 25.1502 43.2381 25.5545 43.1572 25.878C43.1572 25.9589 43.1572 25.9589 43.0763 26.0398C42.9146 26.4441 42.8337 26.8485 42.7528 27.2528C42.5911 27.738 42.4294 28.2232 42.3485 28.7893V28.8702C42.2676 29.1937 42.1868 29.4363 42.1059 29.7597C42.025 29.9215 42.025 30.0832 41.9442 30.245C41.8633 30.4876 41.7824 30.7302 41.7824 30.9728C41.7015 31.2154 41.6207 31.458 41.6207 31.7006C41.5398 32.1049 41.4589 32.4284 41.3781 32.8327C41.2972 33.0753 41.2972 33.2371 41.2163 33.4797C41.1355 33.8841 41.0546 34.2884 40.9737 34.7736C40.9737 34.9353 40.8929 35.1779 40.8929 35.3397C40.8929 35.4205 40.8928 35.5014 40.812 35.5823C40.812 35.744 40.7311 35.9058 40.7311 36.1484C40.7311 36.2292 40.7311 36.3101 40.6503 36.391C40.6503 36.5527 40.5694 36.7144 40.5694 36.8762C40.5694 37.0379 40.4885 37.1997 40.4885 37.3614C40.4885 37.5231 40.4076 37.604 40.4076 37.7657C40.4076 37.9275 40.3268 38.0892 40.3268 38.251C40.3268 38.3318 40.3268 38.4127 40.2459 38.5744C40.2459 38.6553 40.2459 38.7362 40.2459 38.817C40.1651 39.1405 40.1651 39.5449 40.0842 39.8683C40.0033 40.1918 40.0033 40.5153 39.9224 40.9196C39.9224 41.1622 39.8416 41.4048 39.8416 41.6474C39.7607 42.3753 39.6798 43.1031 39.5989 43.9118C39.5989 43.9926 39.5989 43.9926 39.5989 44.0735C39.5989 44.2352 39.5989 44.3161 39.5989 44.4778C39.5989 44.6396 39.5989 44.7205 39.5989 44.8822C39.5989 44.9631 39.5989 44.9631 39.5989 45.0439C39.5989 45.2057 39.5989 45.2865 39.5989 45.3674C39.5989 45.5291 39.5989 45.6909 39.5989 45.8526C39.5989 45.8526 39.5989 45.8526 39.5989 45.9335C39.5181 46.9848 39.5181 47.9552 39.9224 48.6022C40.5694 49.0874 41.6207 49.0874 44.1276 47.9552C46.1493 47.1465 48.2519 46.5804 50.3545 46.257C50.5163 46.257 50.5971 46.257 50.7589 46.1761C55.2067 45.61 59.897 45.8526 63.8596 48.1169C66.2048 50.1387 71.2187 54.1013 71.623 59.7621Z" fill="url(#paint1_linear_9296_51740)"/>
<path d="M44.9374 60.6516C45.2608 60.409 45.6652 60.1664 46.0695 59.9238C46.393 59.7621 46.9591 59.6003 47.1208 59.9238C47.2826 60.1664 47.4443 60.5708 47.0399 60.9751C44.533 64.0481 40.9748 70.275 46.7165 77.9576C46.7165 78.0384 46.7973 78.0385 46.7973 78.1193C49.5469 81.8393 53.5094 84.1036 57.7955 84.9123C61.8389 85.721 66.2059 85.2358 70.0067 83.4566C70.2493 83.3758 70.4919 83.214 70.6536 83.0523C71.5432 82.648 72.3519 82.2436 73.0797 81.6775C76.4762 79.1706 79.1449 75.9358 80.924 72.2159C81.0048 72.135 81.0049 71.9733 81.0857 71.8924C82.0561 69.6281 82.784 67.202 83.1074 64.6951C83.3501 62.0264 83.9161 61.056 84.6439 60.7325C84.7248 60.7325 84.8056 60.7325 84.8865 60.7325C84.9674 60.7325 85.0483 60.7325 85.1292 60.8134C85.21 60.8134 85.2909 60.8943 85.3718 60.8943C85.4526 60.8943 85.5335 60.9751 85.6144 60.9751C85.6952 60.9751 85.7761 61.056 85.857 61.056C86.1804 61.2177 86.4231 61.3795 86.7465 61.5412C86.8274 61.6221 86.9891 61.7029 87.07 61.7838C87.07 61.7838 87.07 61.7838 87.1509 61.7838C87.3935 61.9456 87.717 62.1073 87.9596 62.3499C88.2022 62.5116 88.5257 62.7542 88.7683 62.916C89.0109 63.0777 89.3343 63.3203 89.5769 63.482C90.0622 63.8864 90.6282 64.2099 91.1134 64.6142C91.6795 65.0186 92.2456 65.5038 92.7308 65.9081C92.9734 66.1507 93.2969 66.3124 93.5395 66.555C94.0247 66.9594 94.5099 67.3637 94.9951 67.7681C95.1569 67.9298 95.3186 68.0107 95.3995 68.1724C95.5612 68.3342 95.6421 68.415 95.8038 68.5768C96.289 69.062 96.7743 69.4663 97.3403 69.9515C97.8255 70.4368 98.3107 70.8411 98.796 71.3263C99.0386 71.5689 99.2812 71.8116 99.5238 72.0542C99.7664 72.2968 100.009 72.5393 100.252 72.782C100.979 73.5098 101.707 74.2376 102.354 74.9654C103.082 75.6932 103.729 76.4211 104.376 77.1489C104.78 77.5532 105.185 78.0384 105.589 78.4428C106.074 79.0089 106.479 79.4941 106.964 80.0601C107.368 80.4645 107.692 80.9497 108.015 81.3541C108.015 81.4349 108.096 81.4349 108.096 81.5158C108.5 82.001 108.905 82.4862 109.228 82.8906C110.522 84.5079 111.735 86.0445 112.867 87.5001C113.029 87.6618 113.191 87.9044 113.352 88.147C113.676 88.5514 113.918 88.9557 114.242 89.3601C114.404 89.5218 114.485 89.7644 114.646 89.9262C114.889 90.2496 115.131 90.5731 115.293 90.8966C115.293 90.9775 115.374 90.9775 115.374 91.0583C115.698 91.5436 116.021 91.9479 116.345 92.4331C117.072 93.4035 117.638 94.2931 118.124 95.0209C118.366 95.3444 118.528 95.6679 118.69 95.9105C118.771 95.9913 118.771 96.0722 118.851 96.1531C118.932 96.2339 118.932 96.3148 119.013 96.3957C119.094 96.4765 119.094 96.5574 119.175 96.5574C119.256 96.6383 119.337 96.7191 119.337 96.8L119.418 96.8809L119.498 96.9618C119.337 98.013 118.932 99.0644 118.366 99.9539C118.204 100.197 118.124 100.358 117.962 100.52C117.719 100.843 117.477 101.086 117.234 101.329C117.072 101.49 116.911 101.652 116.668 101.814C101.303 114.268 60.7068 112.893 32.4027 110.143C15.8246 108.526 3.45164 106.423 2.80469 106.343H2.88559C2.96645 106.343 3.04729 106.343 3.20903 106.343C3.2899 106.343 3.37081 106.343 3.45168 106.343C3.53255 106.343 3.69425 106.343 3.77512 106.343C3.85599 106.343 3.93685 106.343 4.01772 106.343C4.09859 106.343 4.26035 106.343 4.34121 106.343C4.42208 106.343 4.50294 106.343 4.58381 106.343C4.74555 106.343 4.98816 106.343 5.1499 106.343C5.31164 106.343 5.55424 106.343 5.79684 106.262C5.79684 106.262 5.79687 106.262 5.87774 106.262C6.03948 106.262 6.2012 106.262 6.36293 106.262H6.44378C6.60552 106.262 6.76729 106.262 6.92903 106.181C7.33337 106.181 7.65682 106.1 8.06116 106.1C8.4655 106.1 8.86985 106.019 9.27419 106.019C9.7594 105.938 10.2447 105.938 10.7299 105.857C10.9725 105.857 11.2151 105.776 11.4577 105.776C11.7003 105.776 11.9429 105.696 12.1855 105.696C12.509 105.696 12.8324 105.615 13.2368 105.534C13.3985 105.534 13.6411 105.453 13.8029 105.453C14.6116 105.372 15.5011 105.21 16.3907 105.129C16.5524 105.129 16.795 105.049 16.9567 105.049C16.9567 105.049 16.9568 105.049 17.0376 105.049C17.3611 104.968 17.6846 104.968 18.0081 104.887C18.3315 104.806 18.7359 104.806 19.0593 104.725C19.6254 104.644 20.1915 104.563 20.8385 104.402C21.0811 104.321 21.3237 104.321 21.5663 104.24H21.6472H21.728C22.6176 104.078 23.5071 103.916 24.3967 103.755C24.7201 103.674 25.0436 103.593 25.448 103.593C25.7714 103.512 26.0141 103.512 26.3375 103.431C26.9845 103.27 27.5506 103.189 28.1975 103.027C28.521 102.946 28.7636 102.865 29.087 102.865C29.4105 102.784 29.8149 102.703 30.1384 102.623C30.2192 102.623 30.2192 102.623 30.3001 102.542C30.7044 102.461 31.1088 102.38 31.594 102.218C32.0792 102.056 32.5644 101.976 33.1305 101.814H33.2114C33.5349 101.733 33.7774 101.652 34.1009 101.571C34.2627 101.49 34.4244 101.49 34.5862 101.41C34.8288 101.329 35.0713 101.248 35.314 101.248C35.5566 101.167 35.7992 101.086 36.0418 101.005C36.4461 100.924 36.7696 100.763 37.0931 100.682C37.3357 100.601 37.4974 100.52 37.74 100.52C38.1444 100.358 38.5487 100.277 38.9531 100.116C39.1148 100.035 39.2765 100.035 39.5191 99.9539C39.6 99.9539 39.6809 99.873 39.7617 99.873C39.9235 99.7921 40.0852 99.7921 40.247 99.7113C40.3278 99.7113 40.4087 99.6304 40.4896 99.6304C40.6513 99.5495 40.813 99.5495 40.9748 99.4687C41.1365 99.3878 41.2983 99.3878 41.46 99.3069C41.6218 99.2261 41.7026 99.2261 41.8644 99.1452C42.0261 99.0644 42.1878 99.0643 42.3495 98.9835C42.4304 98.9835 42.5113 98.9026 42.5921 98.9026C42.673 98.9026 42.7539 98.8217 42.8347 98.8217C43.1582 98.66 43.4817 98.5791 43.8861 98.4174C44.2096 98.2556 44.533 98.1748 44.8565 98.013C45.0991 97.9322 45.3417 97.8513 45.5843 97.6895C46.3121 97.3661 46.9591 97.1235 47.606 96.8C47.6869 96.8 47.6869 96.7192 47.7678 96.7192C47.8486 96.6383 48.0103 96.6383 48.0912 96.5574C48.1721 96.4765 48.3338 96.4765 48.4147 96.3957C48.4956 96.3957 48.4956 96.3957 48.4956 96.3148C48.5764 96.2339 48.7382 96.2339 48.8191 96.1531C48.9808 96.0722 49.1425 95.9913 49.2234 95.9105C49.2234 95.9105 49.2234 95.9105 49.3042 95.9105C50.2747 95.4253 51.0834 94.94 51.4877 94.2931C51.5686 93.4844 51.0025 92.5948 48.8191 90.9774C47.1208 89.6027 45.5843 88.0662 44.2095 86.3679C44.1287 86.287 44.0478 86.2062 43.9669 86.0445C41.2983 82.4862 39.1148 78.281 39.1148 73.7524C39.2765 70.1133 40.1661 63.8055 44.9374 60.6516Z" fill="url(#paint2_linear_9296_51740)"/>
<defs>
<linearGradient id="paint0_linear_9296_51740" x1="43.2552" y1="14.387" x2="98.6685" y2="93.4925" gradientUnits="userSpaceOnUse">
<stop stop-color="#B92029"/>
<stop offset="0.1008" stop-color="#BD2029"/>
<stop offset="0.2115" stop-color="#CA222B"/>
<stop offset="0.3265" stop-color="#E2252E"/>
<stop offset="0.3577" stop-color="#EE262F"/>
<stop offset="0.6331" stop-color="#F15E46"/>
<stop offset="0.8723" stop-color="#F47B5B"/>
<stop offset="1" stop-color="#F58563"/>
</linearGradient>
<linearGradient id="paint1_linear_9296_51740" x1="19.8546" y1="107.906" x2="60.655" y2="20.362" gradientUnits="userSpaceOnUse">
<stop stop-color="#B92029"/>
<stop offset="0.1008" stop-color="#BD2029"/>
<stop offset="0.2115" stop-color="#CA222B"/>
<stop offset="0.3265" stop-color="#E2252E"/>
<stop offset="0.3577" stop-color="#EE262F"/>
<stop offset="0.6331" stop-color="#F15E46"/>
<stop offset="0.8723" stop-color="#F47B5B"/>
<stop offset="1" stop-color="#F58563"/>
</linearGradient>
<linearGradient id="paint2_linear_9296_51740" x1="112.495" y1="81.4601" x2="16.2816" y2="89.8993" gradientUnits="userSpaceOnUse">
<stop stop-color="#B92029"/>
<stop offset="0.1008" stop-color="#BD2029"/>
<stop offset="0.2115" stop-color="#CA222B"/>
<stop offset="0.3265" stop-color="#E2252E"/>
<stop offset="0.3577" stop-color="#EE262F"/>
<stop offset="0.6331" stop-color="#F15E46"/>
<stop offset="0.8723" stop-color="#F47B5B"/>
<stop offset="1" stop-color="#F58563"/>
</linearGradient>
</defs>
</svg>
