<svg width="432" height="256" viewBox="0 0 432 256" fill="none" xmlns="http://www.w3.org/2000/svg">
<rect x="1" y="1" width="430" height="254" fill="white" stroke="url(#paint0_linear)" stroke-width="2"/>
<rect y="192" width="432" height="64" fill="url(#paint1_linear)"/>
<path d="M170.727 226.127H166.38V223.667H170.727V219.288H173.186V223.667H177.532V226.127H173.186V230.451H170.727V226.127ZM196.624 233L195.434 229.092H189.448L188.257 233H184.506L190.301 216.514H194.558L200.375 233H196.624ZM194.603 226.172C193.502 222.631 192.881 220.628 192.738 220.164C192.604 219.699 192.506 219.333 192.446 219.063C192.199 220.021 191.492 222.391 190.324 226.172H194.603ZM211.819 216.581H215.334L209.752 233H205.957L200.386 216.581H203.901L206.99 226.352C207.162 226.928 207.338 227.602 207.518 228.373C207.705 229.137 207.821 229.668 207.866 229.968C207.948 229.279 208.229 228.074 208.708 226.352L211.819 216.581ZM227.463 233L226.272 229.092H220.287L219.096 233H215.345L221.14 216.514H225.396L231.214 233H227.463ZM225.441 226.172C224.341 222.631 223.719 220.628 223.577 220.164C223.442 219.699 223.345 219.333 223.285 219.063C223.038 220.021 222.331 222.391 221.163 226.172H225.441ZM239.625 233H236.144V219.479H231.686V216.581H244.084V219.479H239.625V233ZM256.662 233L255.472 229.092H249.486L248.295 233H244.544L250.339 216.514H254.596L260.413 233H256.662ZM254.641 226.172C253.54 222.631 252.919 220.628 252.776 220.164C252.642 219.699 252.544 219.333 252.484 219.063C252.237 220.021 251.53 222.391 250.362 226.172H254.641ZM265.972 223.87H267.095C268.196 223.87 269.008 223.686 269.532 223.319C270.056 222.952 270.318 222.376 270.318 221.59C270.318 220.811 270.049 220.257 269.51 219.928C268.978 219.598 268.151 219.434 267.028 219.434H265.972V223.87ZM265.972 226.7V233H262.491V216.581H267.275C269.506 216.581 271.157 216.989 272.228 217.805C273.298 218.614 273.833 219.845 273.833 221.5C273.833 222.466 273.568 223.327 273.036 224.083C272.505 224.832 271.752 225.419 270.779 225.846C273.25 229.537 274.859 231.922 275.608 233H271.745L267.825 226.7H265.972Z" fill="white"/>
<path fill-rule="evenodd" clip-rule="evenodd" d="M254.416 118.157C249.187 115.19 244.142 113.73 240.185 112.848C240.193 112.844 240.201 112.844 240.209 112.84C239.813 112.753 239.458 112.682 239.082 112.607C238.836 112.555 238.589 112.5 238.351 112.457C236.086 111.998 234.305 111.709 233.331 111.396C230.775 110.562 228.025 109.68 228.025 106.12C228.025 102.564 227.976 102.097 228.848 101.622C230.508 100.705 231.49 99.2885 231.708 98.1889C232.112 96.136 232.322 90.3846 232.847 89.6528C233.372 88.9052 234.313 89.5421 234.636 87.857C234.947 86.1719 234.947 84.6926 235.258 84.0636C235.573 83.4307 236.671 79.3486 235.993 77.9483C235.387 76.6984 234.288 77.3511 234.212 76.5758C234.078 75.3139 236.425 64.721 234.838 60.2354C233.945 57.692 232.059 55.3345 232.043 55.2791C230.888 51.1614 222.92 48.9542 220.925 48.1077C218.93 47.2651 213.062 46.1062 209.076 48.1077C205.09 50.1131 204.02 52.8108 202.336 53.863C200.66 54.9231 198.871 55.5678 197.223 60.2354C195.636 64.721 197.982 75.3139 197.853 76.5758C197.776 77.3511 196.674 76.6984 196.076 77.9483C195.389 79.3486 196.492 83.4307 196.803 84.0636C197.118 84.6926 197.118 86.1719 197.437 87.857C197.748 89.5421 198.689 88.9052 199.218 89.6528C199.743 90.3846 199.953 96.136 200.357 98.1889C200.571 99.2885 201.556 100.705 203.216 101.622C204.084 102.097 204.04 102.564 204.04 106.12C204.04 109.68 201.294 110.562 198.729 111.396C195.983 112.29 187.017 112.801 177.583 118.157C169.474 122.757 170.007 136 170.007 136H205.833H214.051H261.993C261.993 136 262.53 122.757 254.416 118.157" fill="#BDBDBD"/>
<defs>
<linearGradient id="paint0_linear" x1="216" y1="0" x2="216" y2="256" gradientUnits="userSpaceOnUse">
<stop stop-color="#E9333A"/>
<stop offset="1" stop-color="#DD1F26"/>
</linearGradient>
<linearGradient id="paint1_linear" x1="216" y1="192" x2="216" y2="256" gradientUnits="userSpaceOnUse">
<stop stop-color="#E9333A"/>
<stop offset="1" stop-color="#DD1F26"/>
</linearGradient>
</defs>
</svg>
